<svg width="97" height="96" viewBox="0 0 97 96" fill="none" xmlns="http://www.w3.org/2000/svg">
<g clip-path="url(#clip0_10_4)">
<path d="M0.635349 48C0.635349 21.4903 22.1257 0 48.6353 0V0C75.145 0 96.6353 21.4903 96.6353 48V48C96.6353 74.5097 75.145 96 48.6353 96V96C22.1257 96 0.635349 74.5097 0.635349 48V48Z" fill="#F97316"/>
<path d="M5.28642 60.6855C4.05386 60.3552 3.61451 59.5298 3.96836 58.2092L13.0553 24.2962C13.4092 22.9755 14.2024 22.4804 15.435 22.8106L27.6637 26.0873C33.1046 27.5452 36.8488 29.4543 38.8962 31.8147C40.9483 34.1574 41.4672 37.2216 40.4528 41.0073C39.6979 43.8246 38.0839 45.7983 35.6107 46.9285C33.1376 48.0587 30.2696 48.4792 27.0067 48.1899L26.9926 48.2428C28.5131 49.3296 29.5538 50.5521 30.1146 51.9101C30.6754 53.2682 31.1155 54.443 31.4349 55.4345L34.7898 66.1564C35.3525 67.9302 34.8151 68.5977 33.1775 68.1589L28.5818 66.9275C27.6134 66.668 26.9602 65.9362 26.6223 64.7322L23.672 54.4018C23.3458 53.2953 22.5588 51.971 21.3113 50.4289C20.0861 48.8739 18.7163 47.8935 17.202 47.4878L15.2475 46.964L11.6807 60.2757C11.3268 61.5963 10.5336 62.0915 9.30105 61.7612L5.28642 60.6855ZM17.0026 40.4139L21.7304 41.6807C25.252 42.6243 27.8585 42.8981 29.5499 42.502C31.2636 42.0931 32.354 41.017 32.8211 39.2738C33.3306 37.3722 32.939 35.9461 31.6461 34.9958C30.3755 34.0326 28.3492 33.1782 25.5672 32.4328L19.5716 30.8263L17.0026 40.4139Z" fill="white"/>
<path d="M49.0239 94.5086C47.7866 94.8203 47.0009 94.3133 46.6669 92.9876L38.0894 58.9421C37.7554 57.6163 38.2071 56.7976 39.4445 56.4858L48.6983 54.1544C56.8296 52.1058 62.7412 52.3647 66.4332 54.9311C70.1429 57.4931 72.7615 61.8056 74.2891 67.8688C75.8166 73.9319 75.5584 78.9881 73.5143 83.0372C71.4879 87.0819 66.4091 90.1286 58.2777 92.1772L49.0239 94.5086ZM53.2536 86.4498L56.1172 85.7283C61.5971 84.3478 64.8852 82.4384 65.9816 80.0003C67.0736 77.5445 67.0852 74.1954 66.0163 69.953C64.9475 65.7106 63.3549 62.7844 61.2386 61.1745C59.1179 59.547 55.3176 59.4235 49.8378 60.8041L46.9742 61.5255L53.2536 86.4498Z" fill="white"/>
<path d="M71.7456 55.646C70.6518 56.3032 69.7528 56.0458 69.0487 54.8738L50.9676 24.7783C50.2635 23.6063 50.4584 22.6918 51.5522 22.0346L71.6628 9.95239C72.8347 9.2483 73.7258 9.4041 74.336 10.4198L75.9977 13.1856C76.6079 14.2013 76.327 15.0611 75.1551 15.7652L60.2479 24.7213L64.726 32.1749L78.3909 23.9651C79.5628 23.2611 80.4539 23.4169 81.0641 24.4325L82.7257 27.1983C83.336 28.214 83.0551 29.0739 81.8832 29.778L68.2183 37.9877L73.4567 46.707L89.1139 37.3003C90.2859 36.5962 91.1769 36.752 91.7872 37.7677L93.4488 40.5335C94.059 41.5492 93.7782 42.4091 92.6062 43.1132L71.7456 55.646Z" fill="white"/>
</g>
<defs>
<clipPath id="clip0_10_4">
<path d="M0.635349 48C0.635349 21.4903 22.1257 0 48.6353 0V0C75.145 0 96.6353 21.4903 96.6353 48V48C96.6353 74.5097 75.145 96 48.6353 96V96C22.1257 96 0.635349 74.5097 0.635349 48V48Z" fill="white"/>
</clipPath>
</defs>
</svg>
